<svg viewBox="-0.5 -0.5 16 16" fill="none" xmlns="http://www.w3.org/2000/svg" id="Floppy-Disk--Streamline-Iconoir" height="16" width="16"><desc>Floppy Disk Streamline Icon: https://streamlinehq.com</desc><path d="M0.7153750000000001 12.7769375V2.2230625c0 -0.8326875 0.675 -1.5076875 1.5076875 -1.5076875h8.4216875c0.3998125 0 0.7833125000000001 0.158875 1.0660625 0.441625l2.1321875 2.1321875c0.2828125 0.28275 0.441625 0.6661875 0.441625 1.0660625v8.4216875c0 0.8326875 -0.675 1.5076875 -1.5076875 1.5076875H2.2230625c-0.8326875 0 -1.5076875 -0.675 -1.5076875 -1.5076875Z" stroke="#000000" stroke-width="1"></path><path d="M4.9369375 5.238437500000001h5.126125c0.2498125 0 0.4523125 -0.2025 0.4523125 -0.4523125V1.1676875c0 -0.2498125 -0.2025 -0.4523125 -0.4523125 -0.4523125H4.9369375c-0.2498125 0 -0.4523125 0.2025 -0.4523125 0.4523125v3.6184375c0 0.2498125 0.2025 0.4523125 0.4523125 0.4523125Z" stroke="#000000" stroke-width="1"></path><path d="M2.9769375 8.706125v5.5785h9.046125v-5.5785c0 -0.2498125 -0.20243750000000002 -0.45225000000000004 -0.4523125 -0.45225000000000004H3.4292499999999997c-0.2498125 0 -0.4523125 0.20243750000000002 -0.4523125 0.45225000000000004Z" stroke="#000000" stroke-width="1"></path></svg>